<svg viewBox="0 0 256 256" xmlns="http://www.w3.org/2000/svg" role="img" aria-label="Almanac">
  <title>Almanac</title>
  <desc>Stacked layers — a yearly record</desc>

  <path d="M 68 198 Q 68 184 84 184 L 172 184 Q 188 184 188 198 L 188 210 Q 188 222 172 222 L 84 222 Q 68 222 68 210 Z" fill="#2b2b2b"/>
  <path d="M 82 162 Q 82 150 96 150 L 162 150 Q 176 150 176 162 L 176 178 Q 176 188 162 188 L 96 188 Q 82 188 82 178 Z" fill="#404040"/>
  <path d="M 96 128 Q 96 118 110 118 L 150 118 Q 164 118 164 128 L 164 144 Q 164 152 150 152 L 110 152 Q 96 152 96 144 Z" fill="#d97757"/>
  <path d="M 108 100 Q 108 92 119 92 L 141 92 Q 152 92 152 100 L 152 116 Q 152 122 141 122 L 119 122 Q 108 122 108 116 Z" fill="#2b2b2b"/>
  <ellipse cx="130" cy="82" rx="13" ry="8" fill="#5e5e5e"/>
</svg>
